<?xml version="1.0" encoding="UTF-8" standalone="no"?><!DOCTYPE svg PUBLIC "-//W3C//DTD SVG 1.1//EN" "http://www.w3.org/Graphics/SVG/1.1/DTD/svg11.dtd"><svg width="100%" height="100%" viewBox="0 0 31 31" version="1.1" xmlns="http://www.w3.org/2000/svg" xmlns:xlink="http://www.w3.org/1999/xlink" xml:space="preserve" xmlns:serif="http://www.serif.com/" style="fill-rule:evenodd;clip-rule:evenodd;stroke-linejoin:round;stroke-miterlimit:2;"><rect x="0" y="0" width="30.72" height="30.72" style="fill:#420e0e;"/><g><circle cx="7.68" cy="7.68" r="7.68" style="fill:#ffa400;"/><path d="M7.68,-0.75c4.653,0 8.43,3.777 8.43,8.43c0,4.653 -3.777,8.43 -8.43,8.43c-4.653,0 -8.43,-3.777 -8.43,-8.43c0,-4.653 3.777,-8.43 8.43,-8.43Zm0,0.75c-4.239,0 -7.68,3.441 -7.68,7.68c0,4.239 3.441,7.68 7.68,7.68c4.239,0 7.68,-3.441 7.68,-7.68c0,-4.239 -3.441,-7.68 -7.68,-7.68Z" style="fill:#420e0e;"/><circle cx="23.04" cy="23.04" r="7.68" style="fill:#ffa400;"/><path d="M23.04,14.61c4.653,0 8.43,3.777 8.43,8.43c0,4.653 -3.777,8.43 -8.43,8.43c-4.653,0 -8.43,-3.777 -8.43,-8.43c0,-4.653 3.777,-8.43 8.43,-8.43Zm0,0.75c-4.239,0 -7.68,3.441 -7.68,7.68c0,4.239 3.441,7.68 7.68,7.68c4.239,0 7.68,-3.441 7.68,-7.68c0,-4.239 -3.441,-7.68 -7.68,-7.68Z" style="fill:#420e0e;"/><path d="M0,23.04c0,-4.239 3.441,-7.68 7.68,-7.68c4.239,0 7.68,3.441 7.68,7.68c0,4.239 -3.441,7.68 -7.68,7.68c-4.239,0 -7.68,-3.441 -7.68,-7.68Z" style="fill:#ffa400;"/><path d="M-0.75,23.04c0,-4.653 3.777,-8.43 8.43,-8.43c4.653,0 8.43,3.777 8.43,8.43c0,4.653 -3.777,8.43 -8.43,8.43c-4.653,0 -8.43,-3.777 -8.43,-8.43Zm0.75,0c-0,4.239 3.441,7.68 7.68,7.68c4.239,0 7.68,-3.441 7.68,-7.68c0,-4.239 -3.441,-7.68 -7.68,-7.68c-4.239,0 -7.68,3.441 -7.68,7.68Z" style="fill:#420e0e;"/><path d="M15.36,7.68c0,-4.239 3.441,-7.68 7.68,-7.68c4.239,0 7.68,3.441 7.68,7.68c0,4.239 -3.441,7.68 -7.68,7.68c-4.239,0 -7.68,-3.441 -7.68,-7.68Z" style="fill:#ffa400;"/><path d="M14.61,7.68c0,-4.653 3.777,-8.43 8.43,-8.43c4.653,0 8.43,3.777 8.43,8.43c0,4.653 -3.777,8.43 -8.43,8.43c-4.653,0 -8.43,-3.777 -8.43,-8.43Zm0.75,0c0,4.239 3.441,7.68 7.68,7.68c4.239,0 7.68,-3.441 7.68,-7.68c0,-4.239 -3.441,-7.68 -7.68,-7.68c-4.239,0 -7.68,3.441 -7.68,7.68Z" style="fill:#420e0e;"/></g><circle cx="15.36" cy="15.36" r="7.68" style="fill:#ffa400;"/><path d="M15.36,4.18c6.17,0 11.18,5.01 11.18,11.18c0,6.17 -5.01,11.18 -11.18,11.18c-6.17,0 -11.18,-5.01 -11.18,-11.18c0,-6.17 5.01,-11.18 11.18,-11.18Zm0,3.5c-4.239,0 -7.68,3.441 -7.68,7.68c0,4.239 3.441,7.68 7.68,7.68c4.239,0 7.68,-3.441 7.68,-7.68c0,-4.239 -3.441,-7.68 -7.68,-7.68Z" style="fill:#420e0e;"/><circle cx="15.36" cy="15.36" r="4.32" style="fill:#420e0e;"/><circle cx="15.36" cy="15.36" r="1.652" style="fill:#ffa400;"/><circle cx="15.36" cy="15.36" r="0.932" style="fill:#420e0e;"/><g><circle cx="15.36" cy="7.68" r="1.652" style="fill:#ffa400;"/><circle cx="15.36" cy="22.588" r="1.652" style="fill:#ffa400;"/><path d="M24.466,15.134c0,0.912 -0.74,1.652 -1.652,1.652c-0.912,0 -1.652,-0.74 -1.652,-1.652c0,-0.912 0.74,-1.652 1.652,-1.652c0.912,-0 1.652,0.74 1.652,1.652Z" style="fill:#ffa400;"/><path d="M9.558,15.134c0,0.912 -0.74,1.652 -1.652,1.652c-0.912,0 -1.652,-0.74 -1.652,-1.652c0,-0.912 0.74,-1.652 1.652,-1.652c0.912,0 1.652,0.74 1.652,1.652Z" style="fill:#ffa400;"/><circle cx="15.36" cy="7.68" r="1.652" style="fill:#ffa400;"/></g><g><circle cx="23.04" cy="7.68" r="4.32" style="fill:#420e0e;"/><circle cx="7.68" cy="23.04" r="4.32" style="fill:#420e0e;"/><path d="M27.36,23.04c0,2.384 -1.936,4.32 -4.32,4.32c-2.384,0 -4.32,-1.936 -4.32,-4.32c0,-2.384 1.936,-4.32 4.32,-4.32c2.384,0 4.32,1.936 4.32,4.32Z" style="fill:#420e0e;"/><path d="M12,7.68c0,2.384 -1.936,4.32 -4.32,4.32c-2.384,0 -4.32,-1.936 -4.32,-4.32c0,-2.384 1.936,-4.32 4.32,-4.32c2.384,0 4.32,1.936 4.32,4.32Z" style="fill:#420e0e;"/></g></svg>